# xmcd CD database file
#
# Track frame offsets:
#	150
#	9177
#	20315
#	42532
#	62610
#	81585
#	95192
#	113725
#	125465
#	140227
#	153725
#	159512
#	171177
#	184330
#	201387
#	219362
#	242702
#	255795
#	274225
#	324685
#
# Disc length: 4526 seconds
#
# Revision: 0
# Processed by: cddbd v1.5.2PL0 Copyright (c) Steve Scherf et al.
# Submitted via: CDex 1.70beta2
#
DISCID=2511ac14
DTITLE=Will Barnes - Texas In My Blood
DYEAR=1996
DGENRE=Country
TTITLE0=Texas Music In My BLood
TTITLE1=My Old Truck
TTITLE2=The First Show Boat
TTITLE3=Don't Make Me Sing Redneck Mother Again
TTITLE4=Port Aransas
TTITLE5=Whiskyta
TTITLE6=Speed Of The Race
TTITLE7=Tupelo County Jail
TTITLE8=Sunshine Lady
TTITLE9=Rock And Roll Roadie
TTITLE10=My Bike
TTITLE11=She Ran Off With Buck
TTITLE12=Second Fiddle In A One Man Band
TTITLE13=I Always Die In Dallas
TTITLE14=Standing On The Rock
TTITLE15=Naked With The Girl Next Door
TTITLE16=Clap For Me (But Don't Give Me The Claps)
TTITLE17=Grandpa Was A Farmer
TTITLE18=Desperados Waiting For A Train
TTITLE19=Marijuana Polka
EXTD=YEAR: 1996
EXTT0=
EXTT1=
EXTT2=
EXTT3=
EXTT4=
EXTT5=
EXTT6=
EXTT7=
EXTT8=
EXTT9=
EXTT10=
EXTT11=
EXTT12=
EXTT13=
EXTT14=
EXTT15=
EXTT16=
EXTT17=
EXTT18=
EXTT19=
PLAYORDER=
